<svg class="logo" xmlns="http://www.w3.org/2000/svg" viewBox="0 0 517 512"><path d="M319.691 479.866C196.477 479.866 95.741 380 95.741 256c0-124 99.903-223.866 223.95-223.866 14.153 0 29.139 1.665 42.46 4.161C328.015 18.82 288.887 8 247.26 8 110.727 8 .001 119.517.001 256s110.726 248 248.093 248c41.626 0 79.922-9.986 114.889-28.295-14.153 2.497-29.139 4.161-43.292 4.161z"/><path d="M401.279 398.309c-79.09 0-143.195-64.08-143.195-142.309 0-78.228 64.105-142.309 142.362-142.309 6.66 0 13.32.833 19.149 1.665-27.474-19.141-60.775-29.96-96.574-29.96-94.075 0-170.668 76.564-170.668 170.604s76.593 170.604 170.668 170.604c35.799 0 69.1-10.818 96.574-29.96-5.828 1.665-11.656 1.665-18.316 1.665z"/><path d="M420.427 138.658v-1.664C422.092 201.906 464.551 253.504 517 256h-1.665c-52.449 2.497-94.075 54.926-95.74 119.007v-1.664c-2.498-63.249-44.124-114.014-95.741-116.51h-1.665c53.282-2.497 95.74-54.095 98.238-118.175z"/></svg>
